<!-- SVG Sprite -->
<svg width="0" height="0" class="hidden">
  <symbol fill="none" xmlns="http://www.w3.org/2000/svg" viewBox="0 0 484 359" id="left-pic">
    <path d="M241.018 355.203L21.3127 225.211C14.318 221.273 8.32253 214.822 15.1379 210.589L235.625 83.3671C238.93 81.3149 243.952 79.9682 247.321 81.9305L477.916 215.938C484.91 220.003 486.166 231.329 479.197 235.433L269.971 354.998C261.035 360.187 250.026 360.265 241.018 355.203Z" fill="#5B36A0"></path>
    <path d="M241.018 349.203L21.3127 219.211C14.318 215.273 8.32253 208.822 15.1379 204.589L235.625 77.3671C238.93 75.3149 243.952 73.9682 247.321 75.9305L477.916 209.938C484.91 214.003 486.166 225.329 479.197 229.433L269.971 348.998C261.035 354.187 250.026 354.265 241.018 349.203Z" fill="#6862E6"></path>
    <g opacity="0.25">
      <path d="M259.133 177.693L215.781 202.46C215.781 202.46 282.564 243.26 296.22 249.006L321.188 213.093" fill="url(#paint0_linear_407_2)"></path>
    </g>
    <g opacity="0.25">
      <path d="M244.157 296.513L200.792 271.798L157.428 296.565C157.428 296.565 180.013 310.366 201.599 323.038C215.307 313.328 229.027 303.517 244.157 296.513Z" fill="url(#paint1_linear_407_2)"></path>
    </g>
    <g opacity="0.46">
      <path d="M150.728 143.883L123.223 159.595C123.223 159.595 125.554 173.999 139.211 179.745L175.222 156.658" fill="url(#paint2_linear_407_2)"></path>
    </g>
    <ellipse cx="164.192" cy="147.898" rx="16.59" ry="11.6974" fill="#68E1FD"></ellipse>
    <ellipse cx="164.179" cy="140.997" rx="12.4265" ry="5.09196" fill="#974C26"></ellipse>
    <path fill-rule="evenodd" clip-rule="evenodd" d="M163.474 125.619C163.654 127.915 163.73 130.21 163.73 132.506C163.718 135.379 163.577 138.252 163.269 141.113C162.283 139.74 161.309 138.304 160.284 136.688C158.965 134.623 157.735 132.506 156.608 130.339C155.56 128.411 154.664 126.404 153.93 124.336C153.114 122.09 152.459 119.788 151.97 117.448C151.842 116.884 151.727 116.217 151.624 115.602V115.383V114.845C151.522 113.639 151.419 112.357 151.419 111.074C151.362 106.712 152.204 102.385 153.892 98.3633C158.377 104.876 161.401 112.284 162.757 120.078C162.842 120.54 162.923 121.006 163 121.476C163 121.386 163.18 122.322 163.18 122.669L163.308 123.836C163.368 124.426 163.423 125.02 163.474 125.619ZM157.21 106.687C157.21 106.687 157.21 106.687 157.21 106.687H157.197C157.201 106.687 157.206 106.687 157.21 106.687ZM157.21 106.687C157.525 106.669 157.841 106.704 158.145 106.79C157.838 106.448 157.526 106.115 157.21 105.79C157.275 106.085 157.276 106.391 157.21 106.687Z" fill="#999A1C"></path>
    <path fill-rule="evenodd" clip-rule="evenodd" d="M171.494 128.338C170.405 130.428 169.278 132.34 167.996 134.276C166.446 136.7 164.73 139.035 163.026 141.305C162.911 139.625 162.911 137.88 162.911 135.969C162.911 133.52 163.013 131.083 163.244 128.646C163.402 126.456 163.732 124.281 164.23 122.143C164.753 119.809 165.443 117.516 166.293 115.281C166.523 114.691 166.767 114.114 167.01 113.537L167.01 113.537L167.074 113.331L167.33 112.857C167.907 111.741 168.522 110.638 169.188 109.573C171.502 105.868 174.554 102.68 178.155 100.21C178.416 108.124 176.96 116 173.889 123.297C173.71 123.716 173.526 124.144 173.339 124.58L172.839 125.683L172.314 126.747C172.049 127.278 171.776 127.808 171.494 128.338ZM176.887 108.239C176.801 108.529 176.652 108.796 176.452 109.022C176.702 109.154 176.93 109.322 177.131 109.522C177.062 109.112 176.981 108.684 176.887 108.239Z" fill="#999A1C"></path>
    <path fill-rule="evenodd" clip-rule="evenodd" d="M171.75 137.919C170.478 138.663 169.196 139.356 167.907 139.997C166.293 140.805 164.64 141.523 162.987 142.216C163.474 141.279 164.025 140.317 164.64 139.291C165.447 138.009 166.293 136.726 167.202 135.444C167.993 134.312 168.871 133.244 169.828 132.25C170.865 131.158 171.978 130.142 173.159 129.21L174.107 128.505L174.21 128.415L174.504 128.235C175.183 127.825 175.862 127.427 176.567 127.068C179.004 125.814 181.673 125.076 184.407 124.901C181.997 129.25 178.676 133.026 174.671 135.969L173.954 136.495L173.339 136.931L172.711 137.329L171.75 137.919ZM181.102 128.812C180.963 128.941 180.796 129.038 180.615 129.095V129.107C180.701 129.268 180.761 129.441 180.794 129.621C180.906 129.355 181.008 129.086 181.102 128.812Z" fill="#999A1C"></path>
    <path fill-rule="evenodd" clip-rule="evenodd" d="M163.474 125.619C163.654 127.915 163.73 130.21 163.73 132.506C163.718 135.379 163.577 138.252 163.269 141.113C162.283 139.74 161.309 138.304 160.284 136.688C158.965 134.623 157.735 132.506 156.608 130.339C155.56 128.411 154.664 126.404 153.93 124.336C153.114 122.09 152.459 119.788 151.97 117.448C151.842 116.884 151.727 116.217 151.624 115.602V115.383V114.845C151.522 113.639 151.419 112.357 151.419 111.074C151.362 106.712 152.204 102.385 153.892 98.3633C158.377 104.876 161.401 112.284 162.757 120.078C162.842 120.54 162.923 121.006 163 121.476C163 121.386 163.18 122.322 163.18 122.669L163.308 123.836C163.368 124.426 163.423 125.02 163.474 125.619ZM157.21 106.687C157.21 106.687 157.21 106.687 157.21 106.687H157.197C157.201 106.687 157.206 106.687 157.21 106.687ZM157.21 106.687C157.525 106.669 157.841 106.704 158.145 106.79C157.838 106.448 157.526 106.115 157.21 105.79C157.275 106.085 157.276 106.391 157.21 106.687Z" fill="#999A1C"></path>
    <path fill-rule="evenodd" clip-rule="evenodd" d="M171.494 128.338C170.405 130.428 169.278 132.34 167.996 134.276C166.446 136.7 164.73 139.035 163.026 141.305C162.911 139.625 162.911 137.88 162.911 135.969C162.911 133.52 163.013 131.083 163.244 128.646C163.402 126.456 163.732 124.281 164.23 122.143C164.753 119.809 165.443 117.516 166.293 115.281C166.523 114.691 166.767 114.114 167.01 113.537L167.01 113.537L167.074 113.331L167.33 112.857C167.907 111.741 168.522 110.638 169.188 109.573C171.502 105.868 174.554 102.68 178.155 100.21C178.416 108.124 176.96 116 173.889 123.297C173.71 123.716 173.526 124.144 173.339 124.58L172.839 125.683L172.314 126.747C172.049 127.278 171.776 127.808 171.494 128.338ZM176.887 108.239C176.801 108.529 176.652 108.796 176.452 109.022C176.702 109.154 176.93 109.322 177.131 109.522C177.062 109.112 176.981 108.684 176.887 108.239Z" fill="#999A1C"></path>
    <path fill-rule="evenodd" clip-rule="evenodd" d="M171.75 137.919C170.478 138.663 169.196 139.356 167.907 139.997C166.293 140.805 164.64 141.523 162.987 142.216C163.474 141.279 164.025 140.317 164.64 139.291C165.447 138.009 166.293 136.726 167.202 135.444C167.993 134.312 168.871 133.244 169.828 132.25C170.865 131.158 171.978 130.142 173.159 129.21L174.107 128.505L174.21 128.415L174.504 128.235C175.183 127.825 175.862 127.427 176.567 127.068C179.004 125.814 181.673 125.076 184.407 124.901C181.997 129.25 178.676 133.026 174.671 135.969L173.954 136.495L173.339 136.931L172.711 137.329L171.75 137.919ZM181.102 128.812C180.963 128.941 180.796 129.038 180.615 129.095V129.107C180.701 129.268 180.761 129.441 180.794 129.621C180.906 129.355 181.008 129.086 181.102 128.812Z" fill="#999A1C"></path>
    <path d="M276.35 168.022L252.356 179.565C250.513 180.452 249.311 182.285 249.231 184.33C249.15 186.375 250.205 188.297 251.971 189.326L308.839 222.545C311.392 224.04 314.669 223.254 316.269 220.763L330.092 199.24" fill="#A1482D"></path>
    <path d="M406.854 112.344L215.525 1.96244C212.853 0.424412 209.566 0.4283 206.898 1.97264C204.23 3.51698 202.587 6.36767 202.586 9.45287V124.285C202.586 126.851 203.953 129.222 206.173 130.505L410.146 248.39C411.578 249.221 413.345 249.222 414.778 248.394C416.211 247.565 417.093 246.033 417.09 244.375V130.018C417.084 122.717 413.18 115.976 406.854 112.344Z" fill="#F47B56"></path>
    <path d="M215.537 10.6457L401.089 117.525C405.122 119.85 407.608 124.154 407.61 128.812V214.888C407.607 216.564 406.714 218.113 405.265 218.953C403.816 219.793 402.031 219.798 400.577 218.967L211.348 110.304C209.907 109.477 209.017 107.941 209.017 106.277V14.4294C209.017 12.8741 209.844 11.4366 211.188 10.6567C212.532 9.87684 214.189 9.87265 215.537 10.6457Z" fill="white"></path>
    <ellipse cx="292.738" cy="168.465" rx="4.03558" ry="4.61719" transform="rotate(-10.9 292.738 168.465)" fill="#AB643C"></ellipse>
    <path opacity="0.32" d="M265.41 127.427L351.639 179.296L394.235 154.503L318.126 110.151" fill="url(#paint3_linear_407_2)"></path>
    <path d="M371.97 117.102L278.746 60.1928C277.73 59.6044 276.474 59.6148 275.468 60.2199C274.461 60.8251 273.862 61.9296 273.903 63.1044V95.5287C273.896 96.7218 274.513 97.8318 275.53 98.4531L368.742 154.157C369.739 154.724 370.962 154.717 371.952 154.138C372.942 153.559 373.549 152.496 373.546 151.348L374.033 121.117C374.106 119.507 373.321 117.979 371.97 117.102Z" fill="#E2AC00"></path>
    <path d="M349.667 133.789C353.01 138.47 358.89 139.779 362.785 136.726C366.679 133.674 367.128 127.402 363.784 122.733C360.44 118.064 354.56 116.743 350.666 119.796C346.771 122.848 346.323 129.107 349.667 133.789Z" fill="white"></path>
    <path d="M340.52 111.318L302.497 88.3975C301.82 88.0802 301.014 88.3308 300.635 88.9758C300.257 89.6208 300.431 90.4482 301.037 90.8857L339.059 113.806C339.736 114.123 340.543 113.873 340.921 113.228C341.3 112.583 341.126 111.755 340.52 111.318Z" fill="#F2F2F2"></path>
    <path d="M338.957 120.629L286.548 89.0388C285.885 88.8069 285.152 89.0843 284.808 89.697C284.464 90.3097 284.609 91.081 285.151 91.527L337.496 123.131C338.173 123.448 338.98 123.197 339.358 122.552C339.737 121.907 339.563 121.08 338.957 120.642V120.629Z" fill="#F2F2F2"></path>
    <path d="M353.369 123.387L260.196 66.4905C259.18 65.902 257.924 65.9124 256.918 66.5175C255.911 67.1227 255.312 68.2272 255.353 69.402V101.813C255.338 103.009 255.951 104.124 256.968 104.751L350.179 160.454C351.187 161.034 352.429 161.025 353.427 160.429C354.426 159.833 355.025 158.745 354.996 157.581L355.483 127.35C355.526 125.748 354.723 124.242 353.369 123.387Z" fill="#F47B56"></path>
    <path d="M331.065 140.074C334.409 144.755 340.289 146.064 344.184 143.011C348.078 139.958 348.526 133.686 345.183 129.018C341.839 124.349 335.959 123.028 332.065 126.08C328.17 129.133 327.722 135.392 331.065 140.074Z" fill="white"></path>
    <path d="M321.918 117.602L283.87 94.6823C283.194 94.365 282.387 94.6156 282.008 95.2606C281.63 95.9056 281.804 96.733 282.41 97.1705L320.432 120.091C321.109 120.408 321.916 120.157 322.294 119.512C322.673 118.867 322.499 118.04 321.893 117.602H321.918Z" fill="#F2F2F2"></path>
    <path d="M320.343 126.978L267.946 95.3363C267.27 95.0191 266.463 95.2696 266.084 95.9146C265.706 96.5596 265.88 97.3871 266.486 97.8246L318.895 129.415C319.572 129.732 320.378 129.482 320.757 128.837C321.136 128.192 320.962 127.364 320.355 126.927L320.343 126.978Z" fill="#F2F2F2"></path>
    <path d="M329.989 127.209L236.791 70.3126C235.774 69.7241 234.519 69.7345 233.512 70.3397C232.506 70.9448 231.907 72.0494 231.948 73.2241V105.636C231.94 106.829 232.558 107.939 233.575 108.56L326.786 164.264C327.794 164.844 329.036 164.834 330.035 164.238C331.033 163.643 331.633 162.554 331.603 161.391L332.09 131.16C332.132 129.565 331.334 128.065 329.989 127.209Z" fill="#68E1FD"></path>
    <path d="M329.989 127.209L236.791 70.3126C235.774 69.7241 234.519 69.7345 233.512 70.3397C232.506 70.9448 231.907 72.0494 231.948 73.2241V105.636C231.94 106.829 232.558 107.939 233.575 108.56L326.786 164.264C327.794 164.844 329.036 164.834 330.035 164.238C331.033 163.643 331.633 162.554 331.603 161.391L332.09 131.16C332.132 129.565 331.334 128.065 329.989 127.209Z" fill="#68E1FD"></path>
    <path d="M307.673 143.896C311.016 148.577 316.897 149.886 320.791 146.833C324.686 143.78 325.134 137.508 321.79 132.84C318.447 128.171 312.566 126.85 308.672 129.903C304.777 132.955 304.368 139.214 307.673 143.896Z" fill="white"></path>
    <path d="M298.526 121.425L260.491 98.5044C259.814 98.1872 259.007 98.4377 258.629 99.0827C258.25 99.7277 258.424 100.555 259.03 100.993L297.053 123.913C297.729 124.23 298.536 123.98 298.915 123.335C299.293 122.69 299.119 121.862 298.513 121.425H298.526Z" fill="#F2F2F2"></path>
    <path d="M296.95 130.749L244.541 99.1586C243.864 98.8414 243.058 99.0919 242.679 99.7369C242.301 100.382 242.475 101.209 243.081 101.647L295.49 133.237C296.166 133.555 296.973 133.304 297.352 132.659C297.73 132.014 297.556 131.187 296.95 130.749Z" fill="#F2F2F2"></path>
    <path d="M207.672 124.028C201.649 129.218 197.094 135.902 194.464 143.409C189.826 156.235 201.42 177.192 201.42 177.192L219.458 162.891" fill="#FF8F6F"></path>
    <path d="M205.724 293.602L200.831 290.896L202.112 283.893C202.112 283.893 209.401 284.585 210.042 287.176" fill="#003B94"></path>
    <path d="M207.518 293.499C208.62 292.82 209.773 292.217 210.913 291.614C213.744 290.062 217.831 288.459 219.573 285.547C220.304 284.342 220.212 282.809 219.342 281.699C216.78 278.596 211.169 283.7 208.299 280.263C207.736 279.583 207.467 268.796 207.467 268.796L196.552 271.746C196.552 271.746 194.707 293.422 194.912 294.756C195.117 296.09 198.871 297.322 198.871 297.322C199.988 297.084 201.055 296.65 202.022 296.039C203.162 295.205 202.124 285.034 203.585 286.458C205.045 287.882 205.686 293.448 205.686 293.448C206.292 293.54 206.907 293.557 207.518 293.499Z" fill="#F47B56"></path>
    <path d="M226.568 304.081L221.674 301.413L222.955 294.41C222.955 294.41 230.244 295.103 230.885 297.694" fill="#003B94"></path>
    <path d="M228.412 303.978C229.514 303.299 230.667 302.696 231.807 302.093C234.638 300.541 238.725 298.938 240.467 296.026C241.198 294.821 241.106 293.288 240.237 292.178C237.674 289.074 232.063 294.179 229.194 290.742C228.63 290.062 228.361 279.275 228.361 279.275L217.446 282.225C217.446 282.225 215.589 303.978 215.794 305.261C215.999 306.544 219.752 307.826 219.752 307.826C220.87 307.588 221.937 307.154 222.904 306.544C224.044 305.71 223.006 295.539 224.467 296.962C225.927 298.386 226.568 303.953 226.568 303.953C227.179 304.037 227.799 304.046 228.412 303.978Z" fill="#F47B56"></path>
    <path d="M191.005 233.614L187.789 276.672C187.789 276.672 192.914 283.752 210.093 279.814L210.259 250.789" fill="#3E2928"></path>
    <path d="M210.849 242.144C210.477 245.851 210.849 286.74 210.849 286.74C210.849 286.74 215.601 295.641 236.291 286.74L235.996 251.994" fill="#3E2928"></path>
    <path d="M189.403 247.838C190.813 248.813 191.299 243.798 192.773 244.658C198.132 247.775 203.821 250.287 209.734 252.148H209.862C210.147 252.01 210.475 251.993 210.773 252.102C211.07 252.21 211.31 252.436 211.438 252.725C215.091 253.816 218.809 254.673 222.571 255.29C227.4 256.06 231.397 252.482 236.355 252.238C236.355 233.23 236.445 179.129 228.361 167.586L204.443 159.531C204.328 161.506 192.837 174.845 193.118 191.109C193.439 209.437 191.056 226.727 190.646 232.46C190.582 233.435 189.455 246.8 189.403 247.838Z" fill="#3E2928"></path>
    <path d="M230.564 145.73L228.361 167.534C228.361 167.534 210.516 168.253 202.829 162.943V144.447" fill="#FF8F6F"></path>
    <path d="M253.252 131.378L251.433 133.866C252.403 131.842 253.259 129.765 253.995 127.645C254.508 126.196 252.189 125.619 251.677 127.068L251.408 127.812C251.63 127.042 251.839 126.269 252.035 125.49C252.195 124.849 251.805 124.2 251.164 124.041C250.524 123.882 249.876 124.272 249.717 124.913C249.214 126.926 248.611 128.912 247.91 130.865C248.302 129.131 248.584 127.375 248.756 125.606C248.91 124.08 246.514 124.144 246.373 125.606C246.174 127.62 245.814 129.614 245.297 131.57C245.297 130.886 245.233 130.202 245.105 129.518C245.069 129.173 244.887 128.86 244.605 128.659C244.541 128.389 244.464 128.133 244.375 127.863C244.187 127.309 243.629 126.97 243.052 127.059C242.474 127.147 242.044 127.638 242.03 128.222L241.876 137.201C241.443 138.132 240.877 138.996 240.198 139.766C241.351 140.564 242.463 141.42 243.529 142.331C244.48 143.136 245.387 143.993 246.245 144.896C247.014 143.939 247.752 142.964 248.461 141.972C248.549 141.897 248.627 141.811 248.692 141.715C250.827 138.552 253.03 135.439 255.302 132.378C256.25 131.326 254.162 130.159 253.252 131.378Z" fill="#FFB5A9"></path>
    <path d="M219.24 125.85C219.24 125.85 227.669 128.12 231.09 133.545C233.232 137.3 235.119 141.196 236.739 145.204L242.965 135.52C242.965 135.52 250.524 137.842 253.521 141.562C253.521 141.562 244.554 161.185 236.739 162.866C228.925 164.546 220.623 151.348 220.623 151.348C220.623 151.348 218.907 156.863 219.24 150.976" fill="#FF8F6F"></path>
    <path d="M224.595 146.82C222.144 144.824 220.295 142.187 219.253 139.202C218.24 135.751 219.509 132.724 220.687 129.518C221.963 126.34 222.708 122.973 222.891 119.552C222.993 116.192 222.609 112.831 222.378 109.484C222.345 109.34 222.345 109.191 222.378 109.047C221.251 105.264 218.945 102.057 214.397 101.672C202.624 100.672 201.958 113.729 202.048 119.039C202.137 124.349 202.701 127.94 198.794 130.159C194.886 132.378 192.068 138.201 195.796 142.908C199.524 147.616 196.18 145.897 193.695 150.078C191.21 154.259 191.85 159.48 196.949 161.365C202.048 163.251 225.748 159.711 227.925 157.517C228.698 156.634 229.098 155.484 229.04 154.311C228.508 151.359 226.93 148.699 224.595 146.82Z" fill="#007F68"></path>
    <path fill-rule="evenodd" clip-rule="evenodd" d="M239.506 48.8802C239.325 45.3837 238.171 42.0075 236.176 39.1324C234.4 36.2591 231.777 34.0092 228.668 32.6937C227.076 31.9826 225.277 31.8911 223.621 32.4372C222.041 32.9971 220.738 34.1457 219.983 35.6437C219.073 37.4293 218.666 39.4288 218.804 41.4283C218.915 43.8067 219.471 46.1431 220.444 48.3159C221.415 50.5909 222.758 52.6887 224.415 54.5237C225.814 56.1552 227.567 57.445 229.54 58.2946C230.234 58.572 230.962 58.7575 231.705 58.8461C232.27 58.922 232.843 58.922 233.408 58.8461C233.85 58.7848 234.281 58.664 234.69 58.4869C234.949 58.3846 235.202 58.2646 235.445 58.1278L235.702 57.9483L234.152 55.0624L233.639 55.3446C233.118 55.5853 232.546 55.6912 231.974 55.6524C231.095 55.6617 230.223 55.4915 229.412 55.1522C227.08 54.082 225.16 52.2811 223.941 50.0217C222.411 47.7343 221.525 45.0755 221.379 42.3261C221.133 40.1398 221.891 37.9598 223.442 36.4004C224.911 35.1008 227.023 34.8313 228.771 35.7206C231.124 36.6998 233.11 38.3961 234.446 40.5689C235.933 42.7045 236.79 45.2157 236.919 47.8156C237.013 50.4407 236.44 51.5096 235.202 51.0222C234.761 50.831 234.392 50.5027 234.152 50.0859C233.868 49.6544 233.708 49.1529 233.69 48.6365L233.434 41.4283L230.872 40.4278V41.5693L230.641 41.1589C230.378 40.7834 230.068 40.4429 229.719 40.1456C229.309 39.7737 228.836 39.4783 228.323 39.2735C227.286 38.7631 226.041 38.958 225.21 39.7609C224.265 40.8045 223.828 42.2129 224.018 43.6087C224.072 45.3326 224.585 47.0108 225.504 48.4698C226.267 49.8125 227.445 50.8704 228.861 51.4839C229.454 51.7529 230.116 51.8335 230.757 51.7148C231.14 51.6585 231.502 51.5038 231.807 51.2659C231.927 51.134 232.031 50.9875 232.115 50.8298L232.422 51.4326C232.718 51.951 233.089 52.4222 233.524 52.8306C234.008 53.3332 234.593 53.7267 235.24 53.985C236.301 54.5503 237.609 54.3232 238.418 53.4335C239.341 52.1074 239.73 50.4811 239.506 48.8802ZM231.051 46.3535C231.136 47.031 230.946 47.7142 230.526 48.2517C230.133 48.6423 229.533 48.7355 229.04 48.4826C228.354 48.1849 227.782 47.6717 227.413 47.0204C226.964 46.3036 226.712 45.4806 226.683 44.6348C226.593 43.9624 226.799 43.2843 227.246 42.775C227.678 42.3849 228.306 42.3031 228.822 42.5698C229.48 42.8561 230.025 43.3521 230.372 43.9806C230.797 44.7006 231.031 45.5175 231.051 46.3535Z" fill="#F47B56"></path>
    <path fill-rule="evenodd" clip-rule="evenodd" d="M390.764 187.761C390.586 184.264 389.432 180.887 387.433 178.013C385.721 175.108 383.152 172.805 380.079 171.421C378.482 170.715 376.68 170.623 375.019 171.164C373.44 171.732 372.138 172.884 371.381 174.383C370.471 176.164 370.063 178.16 370.202 180.155C370.312 182.534 370.869 184.87 371.842 187.043C372.813 189.322 374.155 191.424 375.813 193.263C377.214 194.89 378.966 196.176 380.938 197.022C381.628 197.303 382.351 197.492 383.09 197.586C383.66 197.661 384.237 197.661 384.807 197.586C385.246 197.517 385.676 197.397 386.088 197.227C386.348 197.124 386.6 197.004 386.844 196.868L387.1 196.688L385.55 193.802L385.037 194.084C384.515 194.32 383.944 194.426 383.372 194.392C382.492 194.392 381.622 194.217 380.81 193.879C378.482 192.861 376.542 191.121 375.275 188.915C373.743 186.629 372.857 183.97 372.713 181.22C372.441 179.029 373.182 176.833 374.725 175.256C376.198 173.964 378.308 173.7 380.054 174.589C382.4 175.568 384.38 177.259 385.716 179.424C387.202 181.565 388.059 184.08 388.189 186.684C388.266 189.313 387.74 190.378 386.459 189.89C386.018 189.699 385.65 189.371 385.409 188.954C385.129 188.52 384.97 188.02 384.948 187.505L384.691 180.296L382.129 179.309V180.45L381.886 180.04C381.622 179.661 381.312 179.316 380.963 179.014C380.554 178.641 380.081 178.346 379.567 178.142C378.534 177.633 377.294 177.828 376.467 178.629C375.515 179.669 375.078 181.08 375.275 182.477C375.329 184.207 375.847 185.89 376.774 187.351C377.535 188.698 378.713 189.761 380.131 190.378C380.72 190.647 381.379 190.723 382.014 190.596C382.398 190.542 382.76 190.387 383.064 190.147C383.182 190.013 383.285 189.867 383.372 189.711L383.679 190.313C383.978 190.83 384.349 191.301 384.781 191.712C385.268 192.211 385.852 192.604 386.498 192.866C387.559 193.426 388.864 193.2 389.675 192.314C390.598 190.988 390.987 189.362 390.764 187.761ZM382.321 185.234C382.402 185.914 382.208 186.597 381.783 187.133C381.387 187.519 380.788 187.607 380.297 187.351C379.61 187.048 379.039 186.531 378.67 185.876C378.221 185.163 377.969 184.345 377.94 183.503C377.851 182.828 378.061 182.148 378.517 181.643C378.951 181.257 379.578 181.181 380.092 181.451C380.748 181.736 381.289 182.233 381.63 182.862C382.061 183.58 382.299 184.397 382.321 185.234Z" fill="#F47B56"></path>
    <g opacity="0.25">
      <path d="M132.139 232.704L88.7744 208.001L45.4226 232.755C45.4226 232.755 69.5454 247.839 91.1316 260.511C104.839 250.814 117.022 239.72 132.139 232.704Z" fill="url(#paint4_linear_407_2)"></path>
    </g>
    <g filter="url(#filter0_d_407_2)">
      <path fill-rule="evenodd" clip-rule="evenodd" d="M50.9305 163.886V217.755L92.8987 241.791L140.286 213.766V159.897" fill="#FF9271"></path>
    </g>
    <path d="M92.8987 187.922V241.791L140.286 213.766V159.897L92.8987 187.922Z" fill="#DF5C34"></path>
    <path d="M50.9305 163.886L99.6244 136.13L140.286 159.897L92.8987 187.922L50.9305 163.886Z" fill="#F47B56"></path>
    <path fill-rule="evenodd" clip-rule="evenodd" d="M108.22 151.624C103.879 149.247 98.9501 148.161 94.0132 148.494C88.8335 148.586 83.7728 150.065 79.3577 152.778C77.0421 154.097 75.1999 156.112 74.0924 158.537C73.1692 160.637 73.1692 163.029 74.0924 165.13C75.2104 167.512 77.0719 169.466 79.3961 170.696C82.2759 172.324 85.4507 173.362 88.7352 173.749C92.3487 174.249 96.0179 174.184 99.6116 173.557C102.909 173.055 106.077 171.913 108.938 170.196C109.931 169.589 110.854 168.875 111.692 168.067C112.328 167.464 112.895 166.793 113.383 166.066C113.721 165.527 113.997 164.95 114.203 164.347C114.346 163.972 114.462 163.586 114.549 163.193C114.557 163.048 114.557 162.902 114.549 162.757L109.796 162.488L109.617 163.296C109.359 164.11 108.921 164.855 108.336 165.476C107.461 166.492 106.427 167.358 105.274 168.041C101.942 170.017 98.1285 171.029 94.2566 170.966C90.3677 171.13 86.5095 170.211 83.1112 168.311C79.9982 166.477 78.3969 164.193 78.3969 161.628C78.3712 159.012 79.8701 156.759 82.8935 154.869C86.2157 152.843 90.021 151.749 93.9108 151.701C97.581 151.459 101.244 152.274 104.467 154.048C107.499 155.844 108.131 157.293 106.363 158.396C105.067 159.094 103.508 159.094 102.212 158.396L93.8723 153.484L90.2725 155.728L91.5536 156.498H90.849C90.1591 156.536 89.4759 156.652 88.812 156.844C87.9796 157.06 87.1848 157.402 86.4549 157.857C84.9035 158.594 83.9086 160.153 83.8927 161.872C83.9696 163.462 84.9944 164.848 86.9929 166.028C89.1063 167.242 91.5132 167.85 93.9492 167.785C96.3036 167.831 98.6241 167.218 100.649 166.015C101.518 165.522 102.243 164.81 102.75 163.95C103.055 163.487 103.232 162.951 103.263 162.398C103.234 162.164 103.174 161.935 103.083 161.718L104.057 161.795C104.949 161.821 105.84 161.731 106.709 161.526C107.766 161.312 108.776 160.913 109.694 160.346C111.628 159.178 112.448 157.793 112.256 156.203C112.064 154.612 110.706 153.086 108.22 151.624ZM97.075 159.756C97.9063 160.117 98.5056 160.866 98.6764 161.757H98.7276C98.7408 162.576 98.2682 163.326 97.5234 163.668C96.5394 164.249 95.4119 164.543 94.2695 164.514C93.0809 164.542 91.9073 164.245 90.8746 163.655C90.0535 163.295 89.4803 162.531 89.3629 161.641C89.3822 160.787 89.8766 160.015 90.644 159.64C91.5787 159.08 92.6557 158.804 93.7442 158.845C94.9156 158.847 96.0654 159.161 97.075 159.756Z" fill="#3E2928"></path>
    <defs>
      <filter id="filter0_d_407_2" x="0.930481" y="134.897" width="189.355" height="181.895" filterUnits="userSpaceOnUse" color-interpolation-filters="sRGB">
        <feFlood flood-opacity="0" result="BackgroundImageFix"></feFlood>
        <feColorMatrix in="SourceAlpha" type="matrix" values="0 0 0 0 0 0 0 0 0 0 0 0 0 0 0 0 0 0 127 0" result="hardAlpha"></feColorMatrix>
        <feOffset dy="25"></feOffset>
        <feGaussianBlur stdDeviation="25"></feGaussianBlur>
        <feColorMatrix type="matrix" values="0 0 0 0 0.209139 0 0 0 0 0.0691446 0 0 0 0 0.478091 0 0 0 0.497159 0"></feColorMatrix>
        <feBlend mode="normal" in2="BackgroundImageFix" result="effect1_dropShadow_407_2"></feBlend>
        <feBlend mode="normal" in="SourceGraphic" in2="effect1_dropShadow_407_2" result="shape"></feBlend>
      </filter>
      <linearGradient id="paint0_linear_407_2" x1="258.715" y1="185.543" x2="247.685" y2="218.24" gradientUnits="userSpaceOnUse">
        <stop stop-color="#78B46A"></stop>
        <stop offset="0.03" stop-color="#7F3500"></stop>
        <stop offset="1" stop-color="white"></stop>
      </linearGradient>
      <linearGradient id="paint1_linear_407_2" x1="186.536" y1="252.477" x2="167.981" y2="310.838" gradientUnits="userSpaceOnUse">
        <stop stop-color="#78B46A"></stop>
        <stop offset="0.03" stop-color="#7F3500"></stop>
        <stop offset="1" stop-color="white"></stop>
      </linearGradient>
      <linearGradient id="paint2_linear_407_2" x1="140.7" y1="130.002" x2="123.536" y2="169.625" gradientUnits="userSpaceOnUse">
        <stop stop-color="#78B46A"></stop>
        <stop offset="0.03" stop-color="#7F3500"></stop>
        <stop offset="1" stop-color="white"></stop>
      </linearGradient>
      <linearGradient id="paint3_linear_407_2" x1="381.656" y1="165.452" x2="374.951" y2="148.459" gradientUnits="userSpaceOnUse">
        <stop stop-color="white" stop-opacity="0.01"></stop>
        <stop offset="0.99" stop-color="#DC841E"></stop>
      </linearGradient>
      <linearGradient id="paint4_linear_407_2" x1="75.555" y1="188.35" x2="56.0328" y2="246.801" gradientUnits="userSpaceOnUse">
        <stop stop-color="#78B46A"></stop>
        <stop offset="0.03" stop-color="#7F3500"></stop>
        <stop offset="1" stop-color="white"></stop>
      </linearGradient>
    </defs>
  </symbol>
</svg>
